<svg xmlns="http://www.w3.org/2000/svg" xmlns:xlink="http://www.w3.org/1999/xlink" width="663.667" height="550.711" viewBox="0 0 663.667 550.711"><defs><style>.a{fill:none;}.b{fill:#ffd69f;opacity:0.28;}.c{fill:#e67840;}.d{fill:#e98f60;}.e{fill:#e57442;}.f{fill:#db5e26;}.g,.i{fill:#8ad5ff;}.h{fill:#69b1e2;}.i,.r,.t{opacity:0.25;}.ah,.i,.r,.t{mix-blend-mode:multiply;isolation:isolate;}.j{fill:#44a3d8;}.k,.t{fill:#ff6700;}.l{fill:#ff7e27;}.m{fill:#005eb2;}.n{fill:#027ad3;}.o{fill:#005391;}.p{fill:#78cbf9;}.q{fill:#4e72bd;}.r{fill:#598dea;}.s{clip-path:url(#a);}.u{fill:#ed7407;}.v{fill:#ffc97b;}.w{fill:#dbeff6;}.x{fill:#b75b00;}.y{fill:#efa511;}.z{fill:#ef7e03;}.aa{fill:#f7902b;}.ab{fill:#ffeac5;}.ac{fill:#ffc239;}.ad{fill:#ffa727;}.ae{fill:#ffd880;}.af{fill:#f9941c;}.ag{fill:#ffd15f;}.ah{fill:#405f9a;opacity:0.5;}.ai{fill:#ffe2c0;opacity:0.48;}</style><clipPath id="a"><path class="a" d="M154.618,351.352V171.711c0-45.891,119.867-88.647,165.757-88.647A83.318,83.318,0,0,1,403.6,166.287V345.928Z" transform="translate(-154.618 -83.064)"/></clipPath></defs><g transform="translate(-130.178 -62.286)"><path class="b" d="M422.606,73.652c-72.36,54.533-113.834,196.061-234.492,271.187-94.87,59.07-61.755,191.532,17.006,211.222,63.152,15.788,193.14-1.677,281.927,12.53,111.875,17.9,213.012,21.48,258.657-40.275,46.045-62.3,63.545-153.941-9.846-234.492-74.121-81.353-23.27-126.2-72.5-195.111C633.06,56.289,546.117-19.428,422.606,73.652Z" transform="translate(0 33)"/><g transform="translate(162.989 62.465)"><path class="c" d="M454.718,333.081V523.846H358.165V234.4h42.175v91.689Z" transform="translate(-84.901 7.788)"/><path class="d" d="M443.958,309.688V500.453H389.581V302.7Z" transform="translate(-74.141 31.18)"/><path class="e" d="M443.958,234.4v98.683l-54.378-6.993V234.4Z" transform="translate(-74.141 7.788)"/><path class="f" d="M400.341,234.4v91.689l-.964-.129L358.165,281.9V234.4Z" transform="translate(-84.901 7.788)"/><path class="g" d="M626.608,167.347V307.011c0,13.41-10.476,24.289-23.383,24.289H212.568V167.347C212.568,116.9,251.937,76,300.516,76H538.631a84.963,84.963,0,0,1,19.154,2.172c36.2,8.346,64,39.844,68.248,78.768A91.7,91.7,0,0,1,626.608,167.347Z" transform="translate(-134.77 -46.464)"/><path class="h" d="M603.224,265.306H212.565v9.477H603.224c12.914,0,23.385-10.876,23.385-24.287v-9.477C626.609,254.429,616.138,265.306,603.224,265.306Z" transform="translate(-134.771 10.056)"/><path class="h" d="M581.872,147.6v87.666H343.183V137.581H581.3A87.66,87.66,0,0,1,581.872,147.6Z" transform="translate(-90.033 -25.373)"/><path class="i" d="M548.9,156.937C543.921,111.39,506.7,76,461.492,76H437.8c45.208,0,82.43,35.386,87.405,80.933a94.558,94.558,0,0,1,.569,10.408V307.015c0,13.412-10.473,24.287-23.387,24.287H526.08c12.914,0,23.385-10.876,23.385-24.287V167.346A94.529,94.529,0,0,0,548.9,156.937Z" transform="translate(-57.626 -46.463)"/><circle class="j" cx="22.718" cy="22.718" r="22.718" transform="translate(267.572 163.317) rotate(-76.815)"/><path class="j" d="M500.393,92.45c-6.217,7.756-17.569,9.022-25.815,3.5l-5.755-3.842a4.288,4.288,0,0,0-5.958,1.18l-78.71,106.09-15.828-10.588L443.784,76h41.5a84.963,84.963,0,0,1,19.154,2.172A18.9,18.9,0,0,1,500.393,92.45Z" transform="translate(-81.421 -46.464)"/><path class="k" d="M494.032,65.135,483.66,58.2A24.837,24.837,0,0,0,449.2,65.03l-3.975,5.941-3.293,4.924L366.182,189.129l21.17,14.163L460.717,93.627a4.3,4.3,0,0,1,5.958-1.183l5.754,3.85c8.252,5.52,19.6,4.246,25.812-3.5A18.958,18.958,0,0,0,494.032,65.135Z" transform="translate(-82.156 -54)"/><path class="l" d="M442.725,83.762l3.295-4.923,5.719-8.55a21.7,21.7,0,0,1,30.1-5.969L494.821,73a18.855,18.855,0,0,1,7.493,9.986,18.939,18.939,0,0,0-8.282-17.884l-10.123-6.772a25.14,25.14,0,0,0-34.873,6.917l-3.807,5.691-3.293,4.924L366.182,189.1l4.2,2.807Z" transform="translate(-82.156 -53.97)"/><circle class="m" cx="22.718" cy="22.718" r="22.718" transform="matrix(0.159, -0.987, 0.987, 0.159, 266.667, 162.67)"/><path class="n" d="M359.209,169.233a22.708,22.708,0,0,1,33.324-20.083,22.707,22.707,0,1,0-24.689,37.887A22.654,22.654,0,0,1,359.209,169.233Z" transform="translate(-85.735 -23.093)"/><circle class="o" cx="8.688" cy="8.688" r="8.688" transform="translate(285.466 136.614)"/><circle class="k" cx="8.688" cy="8.688" r="8.688" transform="translate(284.027 135.175)"/><path class="l" d="M367.487,164.68a8.682,8.682,0,0,1,14.141-6.758,8.684,8.684,0,1,0-12.211,12.211A8.644,8.644,0,0,1,367.487,164.68Z" transform="translate(-82.156 -19.514)"/><path class="h" d="M209.035,331.3v-162.6a92.7,92.7,0,1,1,185.4,0V331.3Z" transform="translate(-135.98 -46.463)"/><path class="p" d="M61.13,0h53.665a61.13,61.13,0,0,1,61.13,61.13V245.821a0,0,0,0,1,0,0H0a0,0,0,0,1,0,0V61.13A61.13,61.13,0,0,1,61.13,0Z" transform="translate(77.794 34.28)"/><path class="q" d="M382.537,166.28V319.412H216.094V166.28a83.221,83.221,0,0,1,166.443,0Z" transform="translate(-133.562 -44.045)"/><line class="q" x2="166.442" transform="translate(82.532 275.136)"/><path class="g" d="M228.677,262.647h169.69l-50.686,72.167c-25.394,36.154-67.374,57.757-112.234,57.757h0c-41.533,0-66.046-45.527-42.536-79Z" transform="translate(-144.636 17.463)"/><path class="h" d="M234.329,387.154c-17.835,0-33.445-9.212-41.752-24.642a44.574,44.574,0,0,1,2.855-47.6l34.45-49.051H388.862l-45.938,65.406C318.345,366.262,277.75,387.154,234.329,387.154Z" transform="translate(-143.518 18.565)"/><path class="r" d="M245.381,367c-18.708,0-35.078-9.662-43.793-25.846a46.587,46.587,0,0,1,.311-45.614l-6.467,9.208a44.574,44.574,0,0,0-2.855,47.6c8.307,15.429,23.917,24.642,41.752,24.642a133.41,133.41,0,0,0,87.7-32.691A140.34,140.34,0,0,1,245.381,367Z" transform="translate(-143.518 28.73)"/><g transform="translate(0 39.019)"><g class="s"><path class="t" d="M422.321,251.837l15.368-72.23c.066-.31.126-.6.169-.912.046-.418.074-.835.1-1.253.028-.211.038-.685.038-1.047a1.5,1.5,0,0,0,.5-1.218,14.6,14.6,0,0,0-1.114-5.122c-.244-.448-.516-.881-.81-1.318a13.41,13.41,0,0,0-2.038-2.361c-.383-.365-.792-.713-1.207-1.038a14.034,14.034,0,0,0-2.375-1.465,7.278,7.278,0,0,0-.946-.446,9.512,9.512,0,0,0-1.1-.412,4.583,4.583,0,0,0-.521-.164,7.689,7.689,0,0,0-.984-.268L254.6,123.455c-.392-.089-.789-.156-1.164-.217a9.684,9.684,0,0,0-1.137-.118,5.234,5.234,0,0,0-.6-.02.034.034,0,0,0-.046-.011,4.83,4.83,0,0,0-.8,0,4.071,4.071,0,0,0-.781.032,3.355,3.355,0,0,0-.393.027,4.834,4.834,0,0,0-.545.062,5.254,5.254,0,0,0-.577.1c-.1,0-.176.03-.274.031-.282.075-.56.129-.842.2-.152.035-.282.075-.435.11-.078.028-.129.04-.208.068-.259.081-.522.183-.781.263l-.236.086c-.264.1-.533.227-.773.334a8.615,8.615,0,0,0-.815.418,1.344,1.344,0,0,0-.306.187,10.684,10.684,0,0,0-4.954,6.2c-.881,2.951-.576,6.209-.834,9.247q-.584,6.915-1.16,13.831-.681,8.154-1.357,16.306-.675,8.128-1.347,16.255-.566,6.839-1.129,13.676-.354,4.285-.707,8.569a13.1,13.1,0,0,1-.134,1.639c-1.6,7.54,3.47,15.084,11.343,16.867L405.179,262.23c.392.089.767.15,1.141.212a7.269,7.269,0,0,0,.734.074,7.587,7.587,0,0,0,1.048.075,14.1,14.1,0,0,0,1.432-.023,10.446,10.446,0,0,0,1.239-.137,14.454,14.454,0,0,0,3.688-1.066,7.352,7.352,0,0,0,.754-.361,5.233,5.233,0,0,0,.879-.5c.278-.169.556-.337.816-.533a6.594,6.594,0,0,0,.783-.611,12.448,12.448,0,0,0,1.424-1.347c.191-.212.385-.446.576-.658.009-.044.036-.06.068-.1A12.836,12.836,0,0,0,422.321,251.837Z" transform="translate(-128.125 -69.36)"/><g transform="translate(102.474 53.771)"><path class="u" d="M447.288,176.8,431.55,252.591a14.118,14.118,0,0,1-2.594,5.728c-.032.042-.06.06-.07.106-.192.227-.389.477-.581.7a13.154,13.154,0,0,1-1.438,1.445,6.861,6.861,0,0,1-.789.658,9.991,9.991,0,0,1-.823.58,5.479,5.479,0,0,1-.886.541,7.3,7.3,0,0,1-.761.4,14.453,14.453,0,0,1-3.712,1.214,10.1,10.1,0,0,1-1.247.177,13.441,13.441,0,0,1-1.44.063,7.188,7.188,0,0,1-1.054-.05,6.5,6.5,0,0,1-.738-.056c-.376-.054-.752-.107-1.147-.189L242.6,228.262a14.613,14.613,0,0,1-11.342-17.286l15.733-75.767c.067-.325.13-.627.221-.946l.032-.042a10.354,10.354,0,0,1,.753-2c-.017-.027.005-.023.009-.046.043-.089.09-.2.133-.287a13.573,13.573,0,0,1,1.379-2.328c.2-.273.4-.522.623-.789.2-.25.442-.49.662-.734a14.965,14.965,0,0,1,1.459-1.318,14.033,14.033,0,0,1,2.646-1.677,14.492,14.492,0,0,1,9.368-1.176l171.671,35.648a14.649,14.649,0,0,1,11.27,11.1c-.005.023.019.028.013.051a14.972,14.972,0,0,1,.325,2.633,1.92,1.92,0,0,1,0,.362,12.724,12.724,0,0,1-.091,2.183C447.417,176.174,447.355,176.477,447.288,176.8Z" transform="translate(-230.948 -122.965)"/><path class="v" d="M428.956,257.513c-.032.042-.06.06-.07.106-.192.227-.389.477-.581.7a13.154,13.154,0,0,1-1.438,1.445,6.861,6.861,0,0,1-.789.658,9.99,9.99,0,0,1-.823.58c-.285.207-.583.362-.886.541a7.292,7.292,0,0,1-.761.4,14.451,14.451,0,0,1-3.712,1.214,10.092,10.092,0,0,1-1.247.177,13.448,13.448,0,0,1-1.44.063,7.188,7.188,0,0,1-1.054-.05,6.5,6.5,0,0,1-.738-.056c-.376-.054-.752-.107-1.147-.189L242.6,227.456a14.613,14.613,0,0,1-11.342-17.286L246.99,134.4c.067-.325.13-.627.221-.946l.032-.042a10.354,10.354,0,0,1,.753-2c-.017-.027.005-.023.009-.046.043-.089.09-.2.133-.287a13.573,13.573,0,0,1,1.379-2.328c.2-.273.4-.522.623-.789.2-.25.442-.49.662-.734a14.965,14.965,0,0,1,1.459-1.318c-.005.024-.034.042-.043.089a13.6,13.6,0,0,0-1.379,2.327,12.252,12.252,0,0,0-.9,2.331l-.032.042a6.832,6.832,0,0,0-.164.669l-15.791,76.045A14.628,14.628,0,0,0,245.3,224.7L416.97,260.349A14.576,14.576,0,0,0,428.956,257.513Z" transform="translate(-230.948 -122.158)"/><path class="w" d="M443.859,172.309a1.675,1.675,0,0,1-1.14,1.7l-1.76.6-101.4,34.431-1.51.51-6.717,2.282L324.894,206l-.246-.22L245.211,133.72l-.346-.314-.854-.783a1.589,1.589,0,0,1-.254-.294c-.042-.034-.055-.085-.1-.117a2.085,2.085,0,0,1-.278-.826c-.008-.063-.022-.122-.026-.185a2.07,2.07,0,0,1,.1-.75c.013-.046,0-.1.019-.141a2.085,2.085,0,0,1,.188-.324c.034-.042.043-.089.071-.106.173-.255.348-.509.516-.74a.9.9,0,0,1,.169-.232c.2-.248.395-.5.615-.744.224-.267.473-.53.717-.771a.021.021,0,0,1,.027-.017c.248-.263.516-.5.783-.733a6.435,6.435,0,0,1,.635-.5,9.841,9.841,0,0,1,1.159-.8,1.335,1.335,0,0,1,.307-.2,8.617,8.617,0,0,1,.822-.459c.243-.119.513-.256.779-.371l.238-.1c.262-.091.526-.205.788-.3.079-.032.13-.046.209-.078.153-.04.285-.086.438-.126.285-.086.564-.149.847-.236.1,0,.177-.035.275-.039a5.148,5.148,0,0,1,.581-.121,4.71,4.71,0,0,1,.549-.081,3.581,3.581,0,0,1,.395-.039,4.108,4.108,0,0,1,.787-.055,4.754,4.754,0,0,1,.8-.025.033.033,0,0,1,.047.009,5.335,5.335,0,0,1,.6,0,9.214,9.214,0,0,1,1.142.093c.376.054.775.113,1.169.195l173.619,36.052a7.452,7.452,0,0,1,.988.252,3.979,3.979,0,0,1,.524.158,9.08,9.08,0,0,1,1.1.4,7.208,7.208,0,0,1,.949.439,13.414,13.414,0,0,1,2.383,1.463,15.728,15.728,0,0,1,1.21,1.05,13.243,13.243,0,0,1,2.041,2.408c.294.447.565.891.808,1.353A15.428,15.428,0,0,1,443.859,172.309Z" transform="translate(-226.699 -123.116)"/><path class="x" d="M443.49,174.217,339.977,209.372l-1.509.509L328.7,213.2l-5.355-4.863-.674-.6-78.048-70.824-1.791-1.63.082-.395c.067-.325.13-.627.221-.946l.032-.042a10.354,10.354,0,0,1,.753-2c-.017-.027.005-.023.009-.046.043-.089.09-.2.133-.287a13.573,13.573,0,0,1,1.379-2.328c.2-.273.4-.522.623-.789.2-.25.442-.49.662-.734a14.965,14.965,0,0,1,1.459-1.318,14.033,14.033,0,0,1,2.646-1.677,15.04,15.04,0,0,1,5.673.066l173.62,36.052a14.713,14.713,0,0,1,10.7,8.972c-.005.024.019.028.013.051a15,15,0,0,1,.325,2.633c.032.54,2.409-.29,2.368.258C443.538,173.073,443.53,173.911,443.49,174.217Z" transform="translate(-226.876 -122.647)"/><path class="y" d="M443.306,173.813l-2.344.8-101.4,34.431-1.51.51-6.717,2.282L324.9,206l-.246-.22L245.214,133.72l-.346-.314-.854-.783a1.589,1.589,0,0,1-.254-.294c-.042-.034-.055-.085-.1-.117a2.1,2.1,0,0,1,0-2.226c.034-.042.043-.089.071-.106.173-.255.348-.509.516-.74a.9.9,0,0,1,.169-.232c.2-.248.395-.5.615-.744.224-.267.473-.53.717-.771a.021.021,0,0,1,.027-.017c.248-.263.516-.5.783-.733a6.435,6.435,0,0,1,.635-.5,13.634,13.634,0,0,1,1.159-.8c.332-.2.635-.376.961-.55s.648-.325.993-.471.685-.268,1.024-.392.7-.242,1.062-.336c.205-.055.434-.1.662-.153a5.148,5.148,0,0,1,.581-.121c.274-.04.549-.081.819-.1.051-.013.079-.032.125-.023a4.108,4.108,0,0,1,.787-.055,4.754,4.754,0,0,1,.8-.025.033.033,0,0,1,.047.009,5.335,5.335,0,0,1,.6,0,9.215,9.215,0,0,1,1.142.093c.376.054.775.113,1.169.195l173.619,36.052a7.452,7.452,0,0,1,.988.252,3.979,3.979,0,0,1,.524.158,9.08,9.08,0,0,1,1.1.4,7.208,7.208,0,0,1,.949.439,13.414,13.414,0,0,1,2.383,1.463,15.728,15.728,0,0,1,1.21,1.05,13.243,13.243,0,0,1,2.041,2.408c.294.447.565.891.808,1.353C443.834,168.938,443.306,173.813,443.306,173.813Z" transform="translate(-226.702 -123.116)"/><path class="v" d="M442.758,167a13.735,13.735,0,0,0-3.214-2.822,14.414,14.414,0,0,0-5.119-2.151L260.807,125.971a13.855,13.855,0,0,0-2.433-.287,14.694,14.694,0,0,0-12.875,6.644c-.216.342-.436.708-.635,1.078l-.854-.783-.263-.248c-.017-.027.005-.023.009-.046-.042-.034-.055-.085-.1-.117a2.085,2.085,0,0,1-.278-.826c-.008-.063-.022-.122-.026-.185a2.07,2.07,0,0,1,.1-.75c.013-.046,0-.1.019-.141a2.085,2.085,0,0,1,.188-.324c.034-.042.043-.089.071-.106.173-.255.348-.509.516-.74a.9.9,0,0,1,.169-.232c.2-.248.395-.5.615-.744.224-.267.473-.53.717-.771a.021.021,0,0,1,.027-.017c.248-.263.516-.5.783-.733a6.435,6.435,0,0,1,.635-.5,9.841,9.841,0,0,1,1.159-.8,1.335,1.335,0,0,1,.307-.2c.22-.125.439-.248.654-.349a.851.851,0,0,1,.168-.11c.243-.119.513-.256.779-.371l.047.009c.06-.06.134-.068.191-.1.262-.091.526-.205.788-.3l.046.009c.056-.036.107-.05.164-.087.153-.04.285-.086.438-.126s.307-.082.46-.122c.13-.046.256-.068.387-.114.1,0,.177-.035.275-.039a5.148,5.148,0,0,1,.581-.121,4.71,4.71,0,0,1,.549-.081,1.42,1.42,0,0,1,.27-.016c.051-.013.079-.032.125-.023a4.108,4.108,0,0,1,.787-.055,4.754,4.754,0,0,1,.8-.025.033.033,0,0,1,.047.009,5.335,5.335,0,0,1,.6,0,9.214,9.214,0,0,1,1.142.093c.376.054.775.113,1.169.195l173.619,36.052a7.452,7.452,0,0,1,.988.252,3.979,3.979,0,0,1,.524.158,9.08,9.08,0,0,1,1.1.4,7.208,7.208,0,0,1,.949.439,13.414,13.414,0,0,1,2.383,1.463,15.728,15.728,0,0,1,1.21,1.05,14.075,14.075,0,0,1,2.041,2.408C442.244,166.091,442.515,166.535,442.758,167Z" transform="translate(-226.699 -123.116)"/><path class="z" d="M318.566,193.814a8.688,8.688,0,1,1-6.739-10.272A8.687,8.687,0,0,1,318.566,193.814Z" transform="translate(-206.828 -102.483)"/><path class="k" d="M319.607,193.187a8.688,8.688,0,1,1-6.739-10.273A8.687,8.687,0,0,1,319.607,193.187Z" transform="translate(-206.471 -102.698)"/></g><path class="t" d="M402.653,242.042l-21.295-74.421c-.091-.32-.176-.615-.29-.928q-.242-.612-.525-1.2l.007-.007c-.078-.208-.3-.652-.471-.988a1.651,1.651,0,0,0-.152-1.372,15.421,15.421,0,0,0-3.444-4.191c-.43-.3-.877-.563-1.345-.823a13.3,13.3,0,0,0-2.925-1.184c-.512-.149-1.039-.268-1.56-.367a13.473,13.473,0,0,0-2.788-.188,7.259,7.259,0,0,0-1.046.052,9.307,9.307,0,0,0-1.161.16,4.219,4.219,0,0,0-.537.1,7.3,7.3,0,0,0-.992.235l-170.481,48.78c-.388.111-.768.244-1.126.372a9.372,9.372,0,0,0-1.054.45,5.209,5.209,0,0,0-.537.277.033.033,0,0,0-.046.013,4.664,4.664,0,0,0-.7.4,3.884,3.884,0,0,0-.67.414,3.46,3.46,0,0,0-.333.217,4.581,4.581,0,0,0-.448.326,5.9,5.9,0,0,0-.459.377c-.085.05-.14.114-.224.164-.211.208-.43.393-.64.6-.118.107-.212.208-.329.317-.055.064-.094.1-.149.165-.189.2-.372.427-.56.628l-.166.2c-.183.224-.357.471-.517.69a8.615,8.615,0,0,0-.514.788,1.325,1.325,0,0,0-.179.322,9.654,9.654,0,0,0-.654,1.246,6.586,6.586,0,0,0-.332.736c-.128.332-.254.665-.352,1.012a.023.023,0,0,0-.016.03c-.1.325-.2.674-.277,1.016-.081.318-.14.631-.2.944a.9.9,0,0,0-.043.283c-.042.282-.078.588-.113.894-.016.03,0,.075-.013.128a2.08,2.08,0,0,0-.016.375c.007.047.039.086.05.133h0c.077.455,22.935,79.076,22.935,79.076a14.613,14.613,0,0,0,18.077,10.034l168.567-48.234c.388-.11.745-.238,1.1-.364a6.908,6.908,0,0,0,.681-.294,7.417,7.417,0,0,0,.956-.446,13.566,13.566,0,0,0,1.247-.726,10.21,10.21,0,0,0,1.02-.736,14.484,14.484,0,0,0,2.724-2.8,7.341,7.341,0,0,0,.487-.706,5.524,5.524,0,0,0,.534-.893,10,10,0,0,0,.458-.894,6.862,6.862,0,0,0,.393-.951,13.124,13.124,0,0,0,.6-1.947c.066-.29.124-.6.188-.893a.264.264,0,0,1,.013-.126A14.127,14.127,0,0,0,402.653,242.042Z" transform="translate(-144.904 -57.958)"/><g transform="translate(20.877 109.978)"><path class="aa" d="M370.679,176.782l17.383,75.43a14.132,14.132,0,0,1,.039,6.288.24.24,0,0,0-.02.126c-.081.286-.154.595-.235.881a12.936,12.936,0,0,1-.7,1.912,6.816,6.816,0,0,1-.442.929c-.15.3-.328.587-.5.87a5.4,5.4,0,0,1-.58.863,7.646,7.646,0,0,1-.524.681,14.484,14.484,0,0,1-2.866,2.653,9.811,9.811,0,0,1-1.058.682,13.236,13.236,0,0,1-1.282.661,7.454,7.454,0,0,1-.979.4,6.582,6.582,0,0,1-.7.256c-.364.109-.728.217-1.12.307L206.239,309.089a14.613,14.613,0,0,1-17.529-10.963l-17.376-75.407c-.075-.324-.144-.623-.2-.952l.013-.051a10.238,10.238,0,0,1-.15-2.131c-.028-.017-.005-.023-.011-.046,0-.1,0-.219,0-.315a13.636,13.636,0,0,1,.279-2.692c.07-.332.145-.64.236-.977.075-.31.2-.63.294-.944a15.182,15.182,0,0,1,.775-1.807,13.993,13.993,0,0,1,1.7-2.63,14.489,14.489,0,0,1,8.019-4.983l170.854-39.372a14.654,14.654,0,0,1,14.879,5.373c.005.024.028.019.034.042a14.971,14.971,0,0,1,1.395,2.255,1.9,1.9,0,0,1,.149.33,12.825,12.825,0,0,1,.831,2.022C370.535,176.159,370.6,176.458,370.679,176.782Z" transform="translate(-169.889 -164.827)"/><path class="ab" d="M388.1,246.417a.24.24,0,0,0-.02.126c-.081.286-.154.595-.235.881a12.936,12.936,0,0,1-.7,1.912,6.816,6.816,0,0,1-.442.929c-.15.3-.328.587-.5.87-.173.307-.379.573-.58.863a7.646,7.646,0,0,1-.524.681,14.484,14.484,0,0,1-2.866,2.653,9.811,9.811,0,0,1-1.058.682,13.236,13.236,0,0,1-1.282.661,7.454,7.454,0,0,1-.979.4,6.582,6.582,0,0,1-.7.256c-.364.109-.728.217-1.12.307L206.239,297.006a14.613,14.613,0,0,1-17.529-10.963l-17.376-75.407c-.075-.324-.144-.623-.2-.952l.013-.051A10.238,10.238,0,0,1,171,207.5c-.028-.017-.005-.023-.011-.046,0-.1,0-.219,0-.315a13.636,13.636,0,0,1,.279-2.692c.07-.332.145-.64.236-.977.075-.31.2-.63.294-.944a15.182,15.182,0,0,1,.775-1.807c.005.023-.012.051,0,.1a13.613,13.613,0,0,0-.281,2.69,12.193,12.193,0,0,0,.161,2.492l-.012.051a6.388,6.388,0,0,0,.132.675l17.441,75.684a14.626,14.626,0,0,0,17.528,10.963L378.4,254A14.579,14.579,0,0,0,388.1,246.417Z" transform="translate(-169.889 -152.744)"/><path class="w" d="M369.764,172.377a1.674,1.674,0,0,1-.324,2.023l-1.349,1.278-77.73,73.666-1.157,1.093-5.148,4.883-8.286-2.614-.314-.1L173.171,220.353l-.444-.141-1.1-.354a1.479,1.479,0,0,1-.353-.161c-.051-.012-.086-.054-.137-.066a2.07,2.07,0,0,1-.6-.634c-.035-.054-.071-.1-.1-.157a2.085,2.085,0,0,1-.224-.724c-.007-.048-.038-.087-.042-.136a2.115,2.115,0,0,1,.036-.373c.012-.051,0-.1.019-.126.052-.3.1-.607.161-.887a.876.876,0,0,1,.056-.281c.075-.309.149-.619.247-.933.093-.337.208-.679.329-1a.024.024,0,0,1,.017-.03c.115-.342.26-.667.4-.992a6.334,6.334,0,0,1,.369-.717,9.618,9.618,0,0,1,.718-1.211,1.37,1.37,0,0,1,.195-.313,8.918,8.918,0,0,1,.554-.76c.171-.209.36-.447.553-.662l.176-.187c.2-.192.392-.407.592-.6.058-.062.1-.1.157-.157.122-.1.223-.2.345-.3.222-.2.45-.371.671-.568.087-.044.146-.106.232-.15a5.389,5.389,0,0,1,.478-.353,4.581,4.581,0,0,1,.466-.3,3.365,3.365,0,0,1,.342-.2,3.945,3.945,0,0,1,.691-.379,4.734,4.734,0,0,1,.72-.36.032.032,0,0,1,.046-.011,5.133,5.133,0,0,1,.55-.248,9.517,9.517,0,0,1,1.077-.395c.364-.107.752-.222,1.144-.311L354.31,165.36a7.441,7.441,0,0,1,1-.183,4.284,4.284,0,0,1,.542-.077,9.2,9.2,0,0,1,1.168-.1,7.154,7.154,0,0,1,1.046,0,13.4,13.4,0,0,1,2.776.333c.516.125,1.035.273,1.537.448a13.269,13.269,0,0,1,2.861,1.334c.455.285.886.573,1.3.891A15.432,15.432,0,0,1,369.764,172.377Z" transform="translate(-170.169 -164.984)"/><path class="z" d="M369.982,174.043l-79.342,75.2-1.159,1.094-7.483,7.1-6.9-2.18-.863-.263L173.733,223.277l-2.309-.733-.09-.392c-.075-.324-.144-.623-.2-.952l.013-.051a10.238,10.238,0,0,1-.15-2.131c-.028-.017-.005-.023-.011-.046,0-.1,0-.219,0-.315a13.636,13.636,0,0,1,.279-2.692c.07-.332.145-.64.236-.977.075-.31.2-.63.294-.944a15.182,15.182,0,0,1,.775-1.807,13.993,13.993,0,0,1,1.7-2.63,15.045,15.045,0,0,1,5.182-2.312l172.793-39.819a14.714,14.714,0,0,1,13.468,3.681c.005.023.028.017.034.04a14.812,14.812,0,0,1,1.395,2.257c.256.475,2.067-1.271,2.259-.756C369.547,172.983,369.891,173.748,369.982,174.043Z" transform="translate(-169.889 -164.26)"/><path class="ac" d="M369.883,173.976l-1.8,1.7-77.73,73.666-1.157,1.093-5.148,4.883-8.286-2.614-.314-.1L173.166,220.353l-.444-.141-1.1-.354a1.479,1.479,0,0,1-.353-.161c-.051-.012-.086-.054-.137-.066a2.1,2.1,0,0,1-.928-2.023c.012-.051,0-.1.019-.126.052-.3.1-.607.161-.887a.876.876,0,0,1,.056-.281c.075-.309.149-.619.247-.933.093-.337.208-.679.329-1a.024.024,0,0,1,.017-.03c.115-.342.26-.667.4-.992a6.334,6.334,0,0,1,.369-.717,12.9,12.9,0,0,1,.718-1.211c.219-.318.419-.607.643-.9s.452-.567.7-.843.51-.532.768-.785.538-.513.824-.749c.164-.134.349-.275.536-.415a5.389,5.389,0,0,1,.478-.353c.234-.152.466-.3.7-.43.042-.034.059-.063.1-.073a3.945,3.945,0,0,1,.691-.379,4.734,4.734,0,0,1,.72-.36.032.032,0,0,1,.046-.011,5.133,5.133,0,0,1,.55-.248,9.517,9.517,0,0,1,1.077-.395c.364-.107.752-.222,1.144-.311L354.306,165.36a7.441,7.441,0,0,1,1-.183,4.284,4.284,0,0,1,.542-.077,9.2,9.2,0,0,1,1.168-.1,7.154,7.154,0,0,1,1.046,0,13.4,13.4,0,0,1,2.776.333c.516.125,1.035.273,1.537.448a13.269,13.269,0,0,1,2.861,1.334c.455.285.886.573,1.3.891C368.325,169.327,369.883,173.976,369.883,173.976Z" transform="translate(-170.164 -164.984)"/><path class="ab" d="M366.543,168.011a13.717,13.717,0,0,0-4.1-1.219,14.441,14.441,0,0,0-5.549.184L184.1,206.8a13.794,13.794,0,0,0-2.331.756,14.69,14.69,0,0,0-8.918,11.417c-.054.4-.1.826-.126,1.245l-1.1-.354-.342-.115c-.028-.017-.005-.023-.011-.046-.051-.012-.086-.054-.137-.066a2.07,2.07,0,0,1-.6-.634c-.035-.054-.071-.1-.1-.157a2.085,2.085,0,0,1-.224-.724c-.007-.048-.038-.087-.042-.136a2.115,2.115,0,0,1,.036-.373c.012-.051,0-.1.019-.126.052-.3.1-.607.161-.887a.876.876,0,0,1,.056-.281c.075-.309.149-.619.247-.933.093-.337.208-.679.329-1a.024.024,0,0,1,.017-.03c.115-.342.26-.667.4-.992a6.334,6.334,0,0,1,.369-.717,9.618,9.618,0,0,1,.718-1.211,1.37,1.37,0,0,1,.195-.313c.148-.2.3-.408.448-.589a.807.807,0,0,1,.106-.171c.171-.209.36-.447.553-.662l.046-.011c.031-.081.094-.119.13-.176.2-.192.392-.407.592-.6l.046-.011c.035-.056.077-.09.111-.146.122-.1.223-.2.345-.3l.368-.3c.1-.1.2-.168.3-.264.087-.044.146-.106.232-.15a5.389,5.389,0,0,1,.478-.353,4.581,4.581,0,0,1,.466-.3,1.515,1.515,0,0,1,.238-.128c.042-.034.059-.063.1-.073a3.945,3.945,0,0,1,.691-.379,4.734,4.734,0,0,1,.72-.36.032.032,0,0,1,.046-.011,5.133,5.133,0,0,1,.55-.248,9.517,9.517,0,0,1,1.077-.395c.364-.107.752-.222,1.144-.311L354.31,165.36a7.441,7.441,0,0,1,1-.183,4.284,4.284,0,0,1,.542-.077,9.2,9.2,0,0,1,1.168-.1,7.154,7.154,0,0,1,1.046,0,13.4,13.4,0,0,1,2.776.333c.516.125,1.035.273,1.537.448a14.078,14.078,0,0,1,2.861,1.334C365.7,167.4,366.13,167.693,366.543,168.011Z" transform="translate(-170.169 -164.984)"/><path class="z" d="M265,233.548a8.688,8.688,0,1,1-10.417-6.515A8.689,8.689,0,0,1,265,233.548Z" transform="translate(-143.564 -143.808)"/><path class="k" d="M265.685,232.542a8.688,8.688,0,1,1-10.417-6.515A8.69,8.69,0,0,1,265.685,232.542Z" transform="translate(-143.33 -144.153)"/></g><path class="t" d="M465.662,253.425l-10.626-73.078c-.046-.313-.087-.6-.157-.914-.1-.407-.219-.808-.344-1.207-.048-.208-.2-.655-.328-1a1.5,1.5,0,0,0,.043-1.314,14.594,14.594,0,0,0-2.821-4.417c-.384-.337-.788-.648-1.216-.956a13.39,13.39,0,0,0-2.731-1.509c-.485-.209-.989-.393-1.492-.556a14,14,0,0,0-2.736-.55,7.351,7.351,0,0,0-1.042-.09,9.735,9.735,0,0,0-1.172-.005,4.356,4.356,0,0,0-.546.027,7.769,7.769,0,0,0-1.016.089l-175.643,23.2c-.4.052-.795.128-1.168.2a9.217,9.217,0,0,0-1.106.283,5.251,5.251,0,0,0-.571.188.034.034,0,0,0-.047.007,4.869,4.869,0,0,0-.749.281,4.2,4.2,0,0,0-.721.3,3.772,3.772,0,0,0-.36.162,4.661,4.661,0,0,0-.49.247,5.27,5.27,0,0,0-.507.294c-.09.035-.154.09-.244.124-.239.169-.481.315-.72.483-.132.086-.239.168-.371.254-.063.054-.107.083-.171.137-.216.165-.427.353-.643.518l-.191.162c-.212.187-.422.4-.609.581a8.39,8.39,0,0,0-.62.675,1.343,1.343,0,0,0-.222.279,10.68,10.68,0,0,0-2.5,7.535c.2,3.072,1.611,6.023,2.423,8.961q1.849,6.69,3.705,13.375,2.189,7.884,4.381,15.766,2.185,7.858,4.373,15.714,1.839,6.609,3.681,13.218l2.308,8.283a13.4,13.4,0,0,1,.442,1.584c1.109,7.628,8.483,12.946,16.487,11.889l163.555-23.534c.4-.052.771-.124,1.143-.2a7.305,7.305,0,0,0,.716-.185,7.858,7.858,0,0,0,1.01-.293,13.842,13.842,0,0,0,1.336-.52,9.917,9.917,0,0,0,1.114-.557,14.368,14.368,0,0,0,3.09-2.278,6.787,6.787,0,0,0,.581-.6,5.316,5.316,0,0,0,.654-.771,9.68,9.68,0,0,0,.58-.784,6.49,6.49,0,0,0,.524-.843,12.271,12.271,0,0,0,.869-1.757c.1-.264.207-.55.311-.816-.007-.044.013-.07.031-.118A12.861,12.861,0,0,0,465.662,253.425Z" transform="translate(-121.329 -54.036)"/><g transform="translate(141.581 107.632)"><path class="ad" d="M463.493,176.247l10.625,76.675a14.105,14.105,0,0,1-.518,6.267.241.241,0,0,0-.031.124c-.1.278-.207.579-.311.857a13.309,13.309,0,0,1-.87,1.843,6.662,6.662,0,0,1-.522.885c-.176.287-.379.554-.58.823a5.554,5.554,0,0,1-.654.808,7.59,7.59,0,0,1-.583.631,14.454,14.454,0,0,1-3.089,2.388,10.214,10.214,0,0,1-1.114.585,13.3,13.3,0,0,1-1.336.544,7.312,7.312,0,0,1-1.011.307,6.583,6.583,0,0,1-.714.195c-.372.075-.744.152-1.144.207L287.968,293.452a14.613,14.613,0,0,1-16.487-12.475l-10.622-76.65c-.046-.329-.087-.634-.11-.965l.017-.05a10.379,10.379,0,0,1,.039-2.135c-.027-.02,0-.024-.007-.047.011-.1.019-.219.028-.315a13.554,13.554,0,0,1,.518-2.654c.1-.325.2-.627.322-.955.1-.3.25-.608.375-.913a15.271,15.271,0,0,1,.933-1.732,13.924,13.924,0,0,1,1.931-2.468,14.484,14.484,0,0,1,8.428-4.254l173.672-24.066a14.645,14.645,0,0,1,14.343,6.671c0,.023.027.02.03.043a14.888,14.888,0,0,1,1.191,2.371,1.951,1.951,0,0,1,.118.342,12.75,12.75,0,0,1,.648,2.088C463.4,175.613,463.447,175.918,463.493,176.247Z" transform="translate(-259.855 -163.1)"/><path class="ae" d="M473.6,251.3a.241.241,0,0,0-.031.124c-.1.278-.207.579-.311.857a13.309,13.309,0,0,1-.87,1.843,6.662,6.662,0,0,1-.522.885c-.176.287-.379.554-.58.823-.2.29-.428.537-.654.808a7.59,7.59,0,0,1-.583.631,14.454,14.454,0,0,1-3.089,2.388,10.214,10.214,0,0,1-1.114.585,13.3,13.3,0,0,1-1.336.544,7.312,7.312,0,0,1-1.011.307,6.583,6.583,0,0,1-.714.195c-.372.075-.744.152-1.144.207L287.968,285.561a14.613,14.613,0,0,1-16.487-12.475l-10.622-76.65c-.046-.329-.087-.634-.11-.965l.017-.05a10.379,10.379,0,0,1,.039-2.135c-.027-.02,0-.024-.007-.047.011-.1.019-.219.028-.315a13.554,13.554,0,0,1,.518-2.654c.1-.325.2-.627.322-.955.1-.3.25-.608.375-.913a15.271,15.271,0,0,1,.933-1.732c0,.024-.017.05-.011.1a13.563,13.563,0,0,0-.517,2.655,12.083,12.083,0,0,0-.06,2.5l-.017.051a6.482,6.482,0,0,0,.071.683L273.1,269.586a14.626,14.626,0,0,0,16.487,12.475l173.672-24.067A14.579,14.579,0,0,0,473.6,251.3Z" transform="translate(-259.855 -155.209)"/><path class="w" d="M462.931,171.734a1.675,1.675,0,0,1-.5,1.986l-1.457,1.155-83.955,66.482-1.25.987-5.561,4.406-8.021-3.337-.3-.125-99.021-41.2-.431-.18-1.067-.45a1.518,1.518,0,0,1-.338-.192c-.05-.017-.079-.06-.13-.078a2.071,2.071,0,0,1-.538-.685c-.03-.056-.063-.106-.087-.165a2.082,2.082,0,0,1-.158-.74c0-.048-.03-.091-.03-.14a2.01,2.01,0,0,1,.068-.368c.017-.051.011-.1.031-.125.078-.3.157-.595.238-.87a.906.906,0,0,1,.082-.274c.1-.3.2-.6.329-.908.122-.328.267-.658.416-.967a.024.024,0,0,1,.02-.027c.146-.33.318-.642.49-.952a6.365,6.365,0,0,1,.432-.682,9.755,9.755,0,0,1,.822-1.142,1.356,1.356,0,0,1,.223-.294,8.81,8.81,0,0,1,.62-.708c.188-.195.4-.413.608-.611l.192-.171c.215-.173.427-.369.642-.544.064-.056.109-.086.172-.142.132-.09.239-.177.371-.267.238-.176.479-.33.718-.506.091-.036.154-.094.246-.13a5.454,5.454,0,0,1,.508-.309,4.414,4.414,0,0,1,.49-.259,3.486,3.486,0,0,1,.358-.17,3.993,3.993,0,0,1,.722-.314,4.566,4.566,0,0,1,.749-.3.033.033,0,0,1,.047-.007,5.4,5.4,0,0,1,.569-.2,9.384,9.384,0,0,1,1.108-.3c.372-.075.768-.154,1.167-.209l175.644-24.34a7.333,7.333,0,0,1,1.016-.094,4.327,4.327,0,0,1,.545-.027,9.24,9.24,0,0,1,1.173,0,7.153,7.153,0,0,1,1.042.1,13.394,13.394,0,0,1,2.735.577c.5.17,1.008.364,1.493.583a13.3,13.3,0,0,1,2.731,1.583c.427.324.831.651,1.215,1A15.41,15.41,0,0,1,462.931,171.734Z" transform="translate(-260.078 -163.236)"/><path class="af" d="M462.991,173.477l-85.7,67.872-1.25.987-8.082,6.405-6.676-2.782-.836-.338-97.3-40.5-2.235-.934-.055-.4c-.046-.329-.087-.634-.11-.965l.017-.05a10.379,10.379,0,0,1,.039-2.135c-.027-.02,0-.024-.007-.047.011-.1.019-.219.028-.315a13.554,13.554,0,0,1,.518-2.654c.1-.325.2-.627.322-.955.1-.3.25-.608.375-.913a15.272,15.272,0,0,1,.933-1.732,13.923,13.923,0,0,1,1.931-2.468,15.029,15.029,0,0,1,5.365-1.845l175.644-24.34A14.712,14.712,0,0,1,459,170.225c0,.024.027.02.03.044a14.714,14.714,0,0,1,1.189,2.371c.213.5,2.172-1.083,2.318-.553C462.653,172.382,462.925,173.174,462.991,173.477Z" transform="translate(-259.855 -162.555)"/><path class="ag" d="M462.906,173.337l-1.94,1.537-83.955,66.482-1.25.987-5.561,4.406-8.022-3.337-.3-.125-99.021-41.2-.431-.18-1.067-.45a1.519,1.519,0,0,1-.338-.192c-.05-.017-.079-.06-.13-.078a2.1,2.1,0,0,1-.745-2.1c.017-.051.011-.1.031-.125.078-.3.157-.595.238-.87a.906.906,0,0,1,.082-.274c.1-.3.2-.6.329-.908.122-.328.267-.658.416-.967a.024.024,0,0,1,.02-.027c.146-.33.318-.642.49-.952a6.365,6.365,0,0,1,.432-.682,13.253,13.253,0,0,1,.822-1.142c.246-.3.473-.568.721-.842s.5-.524.777-.777.554-.483.834-.713.583-.464.887-.674c.176-.119.373-.243.572-.367a5.458,5.458,0,0,1,.507-.309c.244-.13.49-.259.738-.365.043-.031.063-.058.11-.064a3.994,3.994,0,0,1,.722-.314,4.566,4.566,0,0,1,.749-.3.033.033,0,0,1,.047-.007,5.4,5.4,0,0,1,.569-.2,9.383,9.383,0,0,1,1.108-.3c.372-.075.768-.154,1.167-.209l175.644-24.34a7.333,7.333,0,0,1,1.016-.094,4.327,4.327,0,0,1,.545-.027,9.24,9.24,0,0,1,1.173,0,7.153,7.153,0,0,1,1.042.1,13.394,13.394,0,0,1,2.735.577c.5.17,1.008.364,1.493.583a13.3,13.3,0,0,1,2.731,1.583c.427.324.831.651,1.215,1C461.768,168.567,462.906,173.337,462.906,173.337Z" transform="translate(-260.073 -163.236)"/><path class="ae" d="M460.109,167.1a13.727,13.727,0,0,0-3.974-1.579,14.444,14.444,0,0,0-5.545-.307l-175.643,24.34a13.743,13.743,0,0,0-2.388.546,14.688,14.688,0,0,0-9.9,10.58c-.089.395-.175.814-.236,1.228l-1.067-.45-.332-.145c-.027-.02,0-.024-.007-.047-.05-.017-.079-.06-.13-.078a2.071,2.071,0,0,1-.538-.685c-.03-.056-.063-.106-.087-.165a2.082,2.082,0,0,1-.158-.74c0-.048-.03-.091-.03-.14a2.01,2.01,0,0,1,.068-.368c.017-.051.011-.1.031-.125.078-.3.157-.595.238-.87a.906.906,0,0,1,.082-.274c.1-.3.2-.6.329-.908.122-.328.267-.658.416-.967a.024.024,0,0,1,.02-.027c.146-.33.318-.642.49-.952a6.365,6.365,0,0,1,.432-.682,9.755,9.755,0,0,1,.822-1.142,1.356,1.356,0,0,1,.223-.294c.165-.191.33-.381.5-.548a.791.791,0,0,1,.122-.16c.188-.195.4-.413.608-.611l.047-.007c.038-.077.1-.11.145-.164.215-.173.427-.369.642-.544l.047-.005c.04-.054.085-.085.125-.137.132-.09.239-.177.371-.267l.392-.27c.107-.086.219-.15.326-.236.091-.036.154-.094.246-.13a5.454,5.454,0,0,1,.508-.309,4.414,4.414,0,0,1,.49-.259,1.307,1.307,0,0,1,.248-.106c.043-.031.063-.058.11-.064a3.993,3.993,0,0,1,.722-.314,4.566,4.566,0,0,1,.749-.3.033.033,0,0,1,.047-.007,5.4,5.4,0,0,1,.569-.2,9.384,9.384,0,0,1,1.108-.3c.372-.075.768-.154,1.167-.209l175.644-24.34a7.333,7.333,0,0,1,1.016-.094,4.327,4.327,0,0,1,.545-.027,9.24,9.24,0,0,1,1.173,0,7.153,7.153,0,0,1,1.042.1,13.394,13.394,0,0,1,2.735.577c.5.17,1.008.364,1.493.583a14.108,14.108,0,0,1,2.731,1.583C459.321,166.419,459.725,166.747,460.109,167.1Z" transform="translate(-260.078 -163.236)"/><path class="z" d="M352.163,227.413a8.688,8.688,0,1,1-9.8-7.413A8.689,8.689,0,0,1,352.163,227.413Z" transform="translate(-234.462 -143.823)"/><circle class="k" cx="8.688" cy="8.688" r="8.688" transform="translate(100.444 75.958) rotate(-7.025)"/></g></g></g><path class="g" d="M6.037,0H32.662A6.038,6.038,0,0,1,38.7,6.038v5.3a6.037,6.037,0,0,1-6.037,6.037H6.037A6.037,6.037,0,0,1,0,11.338v-5.3A6.037,6.037,0,0,1,6.037,0Z" transform="translate(367.251 154.722)"/><rect class="g" width="29.025" height="43.932" rx="10.085" transform="translate(429.94 128.165)"/><rect class="h" width="37.614" height="15.697" rx="5.454" transform="translate(273.266 231.825)"/><rect class="h" width="41.76" height="16.585" rx="5.763" transform="translate(260.531 54.419)"/><path class="ah" d="M372.372,166.28V319.412H335.1c.2-5.079.4-10.129.6-15.008C352.974,66.979,245.773,95.758,245.773,95.758l.375-.7A83.2,83.2,0,0,1,372.372,166.28Z" transform="translate(-123.397 -44.045)"/><ellipse class="l" cx="8.454" cy="13.221" rx="8.454" ry="13.221" transform="matrix(0.5, -0.866, 0.866, 0.5, 382.697, 28.965)"/></g><path class="ai" d="M559.589,159.586c1.657,18.733,3.874,37.851,12.045,54.789s23.448,31.558,42.089,34.043a33.937,33.937,0,0,0,16.712-1.681c10.677-4.144,17.988-15.049,19.171-26.441s-3.25-22.953-10.659-31.686c-12.61-14.863-32.685-21.711-45.529-36.373-11.654-13.306-15.949-31.346-24.192-47-2.319-4.4-5.5-9.028-10.372-10.03-14.424-2.962-5.439,19.123-4.264,24.465C557.475,132.789,558.409,146.241,559.589,159.586Z" transform="translate(144.049 22.487)"/></g></svg>