<svg xmlns="http://www.w3.org/2000/svg" width="606.588" height="504.194" viewBox="0 0 606.588 504.194"><defs><style>.a{fill:#5793ce;}.b{fill:#c4d9e8;}.c{fill:#d4ecff;}.d{fill:#173d7a;}.e{fill:#fff;}.f{fill:#396caa;}.g{fill:#d3d0cf;}.h{fill:#f2f2f2;}.i{fill:#d3008d;}.j{fill:#ff2c9c;}</style></defs><g transform="translate(-138.978 -35.091)"><g transform="translate(-125.562 -46.975)"><g transform="translate(763.187 536.732)"><rect class="a" width="3.945" height="11.459" transform="matrix(0.248, 0.969, -0.969, 0.248, 28.089, 0)"/><rect class="a" width="3.945" height="11.459" transform="translate(22.426 5.524) rotate(75.627)"/><rect class="a" width="3.945" height="11.459" transform="translate(16.764 11.048) rotate(75.627)"/><rect class="a" width="3.945" height="11.459" transform="translate(11.101 16.572) rotate(75.624)"/></g><g transform="translate(308.209 86.516)"><path class="b" d="M507.656,137.13,403.471,198.257c-26.415-8.106-60.069-5.6-82.277,7.43-27.02,15.852-26.842,41.25.4,56.724a83.124,83.124,0,0,0,20.5,8.038,109.335,109.335,0,0,0,16.289,2.81c21.668,2.109,44.793-1.755,61.464-11.536,20.192-11.848,25.189-29.022,15.059-43.4l14.376-8.435-.407-9.127L464,200.651l-.382-8.546L478.746,192l-.382-8.549,15.131-.105-.383-8.546,15.129-.105-.38-8.549,16.152-.114,4.929-2.89L534.38,140.7ZM361.045,254.09c-7.035,4.126-18.486,4.207-25.577.18s-7.139-10.641-.1-14.767,18.486-4.207,25.577-.18S368.078,249.964,361.045,254.09Z" transform="translate(-269.245 -27.744)"/><path class="b" d="M504.4,420.222l-140.51-80.788c-9.46-5.462-8.274-15,2.65-21.308l136.373-78.735c10.924-6.307,27.448-6.992,36.909-1.53l140.51,80.788c9.46,5.462,8.274,15-2.648,21.308L541.3,418.692C530.38,425,513.855,425.684,504.4,420.222Z" transform="translate(-208.99 75.835)"/><g transform="translate(109.486 163.814)"><g transform="translate(195.222)"><path class="a" d="M588.482,312.535,564.188,298.51,653.754,246.8c4.23-2.444,4.23-6.417,0-8.859l-91.5-52.827a16.974,16.974,0,0,0-15.344,0l-89.566,51.711L433.054,222.8l89.566-51.711c17.624-10.175,46.3-10.175,63.927,0l91.5,52.827c17.624,10.176,17.624,26.733,0,36.908Z" transform="translate(-433.054 -163.457)"/></g><g transform="translate(0 25.758)"><path class="c" d="M726.02,305.412c0-12.987-7.9-28.073-17.637-33.7l-162.275-93.69c-4.362-2.518-8.348-2.7-11.426-.976l-.008-.006L340.918,289.634,528.286,430.822,719.173,320.03a8.847,8.847,0,0,0,1.687-.978l0,0h0C724.048,316.636,726.02,311.9,726.02,305.412Z" transform="translate(-336.173 -175.917)"/><path class="d" d="M444.258,373.654,635.145,262.863a8.84,8.84,0,0,0,1.687-.978l0,0h0c3.186-2.415,5.158-7.151,5.158-13.638a43.266,43.266,0,0,0-4.753-18.767L419.644,355.106Z" transform="translate(-252.145 -118.749)"/><path class="a" d="M518.534,372.719l-162.277-93.69c-9.739-5.623-17.635-20.711-17.635-33.7h0c0-12.987,7.9-18.956,17.635-13.332l162.277,93.69c9.739,5.623,17.635,20.709,17.635,33.7h0C536.169,372.374,528.274,378.342,518.534,372.719Z" transform="translate(-338.623 -118.315)"/></g><path class="e" d="M425.779,294.559,406.27,283.3c-1.941-1.121-3.517-4.126-3.517-6.717h0c0-2.588,1.575-3.777,3.517-2.657l19.51,11.255c1.941,1.12,3.515,4.128,3.515,6.717h0C429.294,294.491,427.72,295.679,425.779,294.559Z" transform="translate(-270.174 -45.994)"/></g><path class="f" d="M343.029,164.833l33.34,18.939,34.02-19.961-.091-8.683-.29.17-.027-.613,15.13-.105-.089-8.549,14.837-.1-.089-8.549,14.837-.1-.089-8.55,14.837-.1-.089-8.55,15.861-.111,4.928-2.891,5.439-22.442-.09-8.683-2.625,8.32-24.01-3.207Z" transform="translate(-224.434 -82.376)"/><g transform="translate(37.634)"><g transform="translate(80.87)"><path class="c" d="M376.326,176.932l34.02-19.96-.408-9.126,15.13-.106-.382-8.547,15.13-.106-.382-8.547,15.13-.106-.382-8.547,15.13-.106-.382-8.547,16.154-.113,4.928-2.891,5.439-22.441-26.725-3.57-125.74,73.774Z" transform="translate(-342.985 -84.219)"/></g><g transform="translate(80.87 59.358)"><path class="f" d="M398.981,132.995c-3.426-4.864-8.569-9.411-15.453-13.322a79.759,79.759,0,0,0-15.97-6.742l-24.573,14.416,33.34,18.939Z" transform="translate(-342.985 -112.931)"/></g><g transform="translate(122.611 2.971)"><path class="a" d="M472.988,90.021l.913-3.766-4.484-.6-106.24,62.334,5.6,3.178Z" transform="translate(-363.176 -85.656)"/></g><g transform="translate(0.009 97.504)"><path class="g" d="M304.239,143.726l-.367-12.343,3.951,8.336Z" transform="translate(-303.872 -131.383)"/></g><path class="f" d="M324.594,186.314c27.239,15.474,71.227,15.168,98.247-.686,13.547-7.949,20.254-18.3,20.144-28.587l0,.006-.378-13.078-2.22,2.475c-3.134-6.446-9.107-12.516-17.947-17.537-27.242-15.474-71.227-15.166-98.247.686S297.352,170.842,324.594,186.314Zm39.348-23.086c7.091,4.029,7.139,10.641.1,14.767s-18.486,4.207-25.577.18-7.139-10.641-.1-14.767S356.851,159.2,363.942,163.228Z" transform="translate(-303.677 -48.698)"/><g transform="translate(0 56.463)"><path class="h" d="M324.414,180.347c27.242,15.474,71.229,15.166,98.249-.686s26.84-41.25-.4-56.724-71.227-15.166-98.247.688S297.174,164.873,324.414,180.347Zm39.35-23.086c7.091,4.027,7.138,10.639.1,14.767s-18.486,4.207-25.577.178-7.139-10.639-.1-14.767S356.673,153.232,363.764,157.261Z" transform="translate(-303.867 -111.531)"/></g><path class="a" d="M355.8,167.51c-5.993.936-12.623.118-17.341-2.561-5.086-2.89-6.527-7.1-4.354-10.781l-12.34-9.785s-6.45-7.277-12.836-14.492c-9.936,14.523-4.705,31.63,15.656,43.2,8.983,5.1,19.047,8,30.463,9.681Z" transform="translate(-303.673 -35.472)"/><g transform="translate(0 56.463)"><path class="c" d="M324.414,180.347a82.96,82.96,0,0,0,20.5,8.038A109.064,109.064,0,0,0,361.2,191.2c21.668,2.109,44.793-1.755,61.464-11.536,27.02-15.855,26.84-41.25-.4-56.724s-71.227-15.166-98.247.688S297.174,164.873,324.414,180.347Zm39.35-23.086c7.091,4.027,7.138,10.639.1,14.767s-18.486,4.207-25.577.178-7.139-10.639-.1-14.767S356.673,153.232,363.764,157.261Z" transform="translate(-303.867 -111.531)"/></g><g transform="translate(7.675 60.887)"><path class="f" d="M307.582,149.958c1.325-7.906,7.186-15.629,17.622-21.753,24.041-14.106,63.176-14.378,87.412-.612,12.044,6.843,18.129,15.865,18.267,24.941,1.726-10.306-4.263-20.924-17.978-28.713-24.236-13.769-63.373-13.494-87.412.61C313.4,131.525,307.444,140.77,307.582,149.958Z" transform="translate(-307.58 -113.67)"/></g></g><g transform="translate(0 95.033)"><path class="f" d="M314.587,244.6a27.254,27.254,0,0,1-13.63-3.517c-9.762-5.538-15.2-16.671-15.292-31.347-.192-26.766,18.439-59.565,41.529-73.114,12.65-7.424,24.992-8.462,34.754-2.915a27.3,27.3,0,0,1,10.105,10.105c3.386,5.77,5.131,12.917,5.187,21.244.19,26.766-18.443,59.567-41.533,73.114C328.42,242.444,321.234,244.6,314.587,244.6ZM348.3,140.027c-4.9,0-10.4,1.7-16.132,5.067-20.392,11.964-36.849,40.932-36.679,64.576.074,11.017,3.74,19.14,10.32,22.873s15.431,2.729,24.932-2.845c20.394-11.964,36.849-40.932,36.683-64.576-.043-6.487-1.371-12.137-3.837-16.338h0a17.065,17.065,0,0,0-15.288-8.757Z" transform="translate(-285.663 -130.188)"/></g><path class="c" d="M323.917,150.432l19.394,4.753,2.785-14.391c-7.033,4.126-18.486,4.207-25.577.178Z" transform="translate(-248.461 -23.834)"/><path class="c" d="M313.806,146.088a82.961,82.961,0,0,0,20.5,8.038,109.061,109.061,0,0,0,16.289,2.812c21.668,2.109,44.793-1.755,61.464-11.536l-78.979-1.774Z" transform="translate(-255.625 -20.809)"/><path class="f" d="M336.778,151.923a114.674,114.674,0,0,1-17.153-4.42v12.119a94.081,94.081,0,0,0,16.944,4.343C354.652,166.353,336.778,151.923,336.778,151.923Z" transform="translate(-249.414 -16.673)"/><path class="a" d="M329.7,150.776a80.443,80.443,0,0,1-11.172-4.122c-10.564-4.945,2.8,13.376,2.8,13.376s3.6,1.435,8.373,2.9Z" transform="translate(-254.927 -18.484)"/></g><path class="a" d="M444.2,251.349,409.64,273.635,392.819,270.9l41.088-19.862Z" transform="translate(136.918 180.356)"/><path class="c" d="M358.137,123.774A20.666,20.666,0,1,1,378.8,103.108,20.69,20.69,0,0,1,358.137,123.774Zm0-36.822a16.155,16.155,0,1,0,16.154,16.156A16.173,16.173,0,0,0,358.137,86.952Z" transform="translate(77.844 0.399)"/><path class="a" d="M322.275,318.106l-9.948-20.229,20.229-9.946L342.5,308.16Zm-3.911-18.174,5.966,12.139,12.137-5.966L330.5,293.968Z" transform="translate(51.006 219.73)"/><path class="a" d="M464.3,166.434,454.354,146.2l20.229-9.946,9.946,20.231Zm-3.911-18.176,5.966,12.139,12.137-5.966-5.964-12.139Z" transform="translate(202.598 57.838)"/><rect class="a" width="10.364" height="10.364" transform="translate(336.814 419.038) rotate(-26.18)"/><g transform="translate(645.431 82.067)"><path class="i" d="M513.093,114.5,457.816,82.584a2.828,2.828,0,0,0-2.857-.229l0-.035-5.363,3.1,3.769,1.377v40.256c0,3.275,1.991,7.081,4.447,8.5l52.835,30.5v4.724l5.417-3.12-.029-.01c.916-.558,1.5-1.784,1.5-3.545V123C517.542,119.722,515.551,115.916,513.093,114.5Z" transform="translate(-447.907 -82.067)"/><path class="j" d="M508.507,168.994,453.23,137.078c-2.456-1.418-4.449-5.222-4.449-8.5v-41.1c0-3.275,1.993-4.782,4.449-3.364l55.277,31.916c2.456,1.418,4.449,5.222,4.449,8.5v41.1C512.956,168.907,510.963,170.412,508.507,168.994Z" transform="translate(-448.781 -80.451)"/><g transform="translate(15.578 35.494)"><path class="e" d="M463.777,106.205c0,2.377-1.67,3.343-3.732,2.152a8.244,8.244,0,0,1-3.729-6.458c0-2.38,1.67-3.343,3.729-2.154A8.241,8.241,0,0,1,463.777,106.205Z" transform="translate(-456.316 -99.236)"/><path class="e" d="M469.241,109.36c0,2.38-1.67,3.343-3.729,2.154a8.242,8.242,0,0,1-3.729-6.46c0-2.377,1.668-3.343,3.729-2.154A8.251,8.251,0,0,1,469.241,109.36Z" transform="translate(-450.482 -95.868)"/><path class="e" d="M474.706,112.516c0,2.377-1.668,3.341-3.729,2.152a8.244,8.244,0,0,1-3.729-6.46c0-2.377,1.67-3.341,3.729-2.152A8.239,8.239,0,0,1,474.706,112.516Z" transform="translate(-444.649 -92.5)"/></g></g><g transform="translate(264.54 432.383)"><path class="a" d="M327.632,283.334,273.4,252.026a2.772,2.772,0,0,0-2.8-.225l0-.035-5.261,3.039s2.33.85,3.7,1.35v39.493c0,3.213,1.954,6.944,4.364,8.336l51.833,29.927v4.633l5.315-3.06-.029-.01c.9-.548,1.474-1.749,1.474-3.477V291.672C332,288.459,330.043,284.726,327.632,283.334Z" transform="translate(-263.683 -251.518)"/><path class="c" d="M323.133,336.8,268.9,305.486c-2.411-1.391-4.364-5.123-4.364-8.338V256.827c0-3.215,1.954-4.691,4.364-3.3l54.229,31.31c2.411,1.391,4.364,5.123,4.364,8.336V333.5C327.5,336.709,325.543,338.188,323.133,336.8Z" transform="translate(-264.54 -249.933)"/><g transform="translate(15.282 34.821)"><path class="e" d="M279.25,275.2c0,2.332-1.637,3.279-3.659,2.111a8.09,8.09,0,0,1-3.659-6.336c0-2.334,1.639-3.279,3.659-2.113A8.085,8.085,0,0,1,279.25,275.2Z" transform="translate(-271.932 -268.361)"/><path class="e" d="M284.612,278.294c0,2.334-1.639,3.279-3.659,2.113a8.085,8.085,0,0,1-3.659-6.339c0-2.332,1.637-3.279,3.659-2.111A8.09,8.09,0,0,1,284.612,278.294Z" transform="translate(-266.209 -265.057)"/><path class="e" d="M289.974,281.39c0,2.332-1.639,3.279-3.659,2.111a8.081,8.081,0,0,1-3.659-6.336c0-2.334,1.637-3.279,3.659-2.113A8.093,8.093,0,0,1,289.974,281.39Z" transform="translate(-260.486 -261.753)"/></g></g></g></g></svg>